<mxfile host="65bd71144e">
    <diagram id="YQ9wzQnn78EDyqOodPP7" name="第 1 页">
        <mxGraphModel dx="698" dy="428" grid="1" gridSize="10" guides="1" tooltips="1" connect="1" arrows="1" fold="1" page="1" pageScale="1" pageWidth="1920" pageHeight="1200" math="0" shadow="0">
            <root>
                <mxCell id="0"/>
                <mxCell id="1" parent="0"/>
                <mxCell id="38" value="ID_REG" style="rounded=0;whiteSpace=wrap;html=1;fontFamily=Comic Sans MS;fontSize=14;verticalAlign=top;" vertex="1" parent="1">
                    <mxGeometry x="720" y="140" width="240" height="180" as="geometry"/>
                </mxCell>
                <mxCell id="15" value="ID" style="ellipse;shape=cloud;whiteSpace=wrap;html=1;rounded=1;fontFamily=Comic Sans MS;fontSize=14;" vertex="1" parent="1">
                    <mxGeometry x="460" y="175" width="130" height="130" as="geometry"/>
                </mxCell>
                <mxCell id="5" value="&amp;nbsp; &amp;nbsp; &amp;nbsp; &amp;nbsp; IF" style="rounded=0;whiteSpace=wrap;html=1;fontFamily=Comic Sans MS;fontSize=14;" vertex="1" parent="1">
                    <mxGeometry x="160" y="200" width="220" height="50" as="geometry"/>
                </mxCell>
                <mxCell id="T3DYV_Oe9rwaa2zpeREG-1" value="hold" style="rounded=1;whiteSpace=wrap;html=1;labelBorderColor=none;fontSize=14;fontFamily=Comic Sans MS;" parent="1" vertex="1">
                    <mxGeometry x="160" y="200" width="80" height="20" as="geometry"/>
                </mxCell>
                <mxCell id="2" value="jmp_addr (vld)" style="rounded=1;whiteSpace=wrap;html=1;labelBorderColor=none;fontSize=14;fontFamily=Comic Sans MS;" vertex="1" parent="1">
                    <mxGeometry x="160" y="230" width="100" height="20" as="geometry"/>
                </mxCell>
                <mxCell id="18" style="edgeStyle=orthogonalEdgeStyle;html=1;exitX=1;exitY=0.5;exitDx=0;exitDy=0;entryX=0;entryY=0.5;entryDx=0;entryDy=0;fontFamily=Comic Sans MS;fontSize=14;" edge="1" parent="1" source="3" target="16">
                    <mxGeometry relative="1" as="geometry"/>
                </mxCell>
                <mxCell id="3" value="IF_pc" style="rounded=1;whiteSpace=wrap;html=1;labelBorderColor=none;fontSize=14;fontFamily=Comic Sans MS;" vertex="1" parent="1">
                    <mxGeometry x="320" y="200" width="60" height="20" as="geometry"/>
                </mxCell>
                <mxCell id="19" style="edgeStyle=orthogonalEdgeStyle;html=1;exitX=1;exitY=0.5;exitDx=0;exitDy=0;entryX=0;entryY=0.5;entryDx=0;entryDy=0;fontFamily=Comic Sans MS;fontSize=14;" edge="1" parent="1" source="4" target="6">
                    <mxGeometry relative="1" as="geometry"/>
                </mxCell>
                <mxCell id="4" value="IF_inst" style="rounded=1;whiteSpace=wrap;html=1;labelBorderColor=none;fontSize=14;fontFamily=Comic Sans MS;" vertex="1" parent="1">
                    <mxGeometry x="320" y="230" width="60" height="20" as="geometry"/>
                </mxCell>
                <mxCell id="6" value="inst" style="rounded=1;whiteSpace=wrap;html=1;labelBorderColor=none;fontSize=14;fontFamily=Comic Sans MS;" vertex="1" parent="1">
                    <mxGeometry x="440" y="230" width="40" height="20" as="geometry"/>
                </mxCell>
                <mxCell id="40" style="edgeStyle=orthogonalEdgeStyle;html=1;exitX=1;exitY=0.5;exitDx=0;exitDy=0;entryX=0;entryY=0.5;entryDx=0;entryDy=0;fontFamily=Comic Sans MS;fontSize=14;" edge="1" parent="1" source="7" target="20">
                    <mxGeometry relative="1" as="geometry"/>
                </mxCell>
                <mxCell id="7" value="ID_opcode" style="rounded=1;whiteSpace=wrap;html=1;labelBorderColor=none;fontSize=14;fontFamily=Comic Sans MS;" vertex="1" parent="1">
                    <mxGeometry x="560" y="190" width="80" height="20" as="geometry"/>
                </mxCell>
                <mxCell id="41" style="edgeStyle=orthogonalEdgeStyle;html=1;exitX=1;exitY=0.5;exitDx=0;exitDy=0;entryX=0;entryY=0.5;entryDx=0;entryDy=0;fontFamily=Comic Sans MS;fontSize=14;" edge="1" parent="1" source="8" target="21">
                    <mxGeometry relative="1" as="geometry"/>
                </mxCell>
                <mxCell id="8" value="ID_rs1 (vld)" style="rounded=1;whiteSpace=wrap;html=1;labelBorderColor=none;fontSize=14;fontFamily=Comic Sans MS;" vertex="1" parent="1">
                    <mxGeometry x="540" y="210" width="100" height="20" as="geometry"/>
                </mxCell>
                <mxCell id="42" style="edgeStyle=orthogonalEdgeStyle;html=1;exitX=1;exitY=0.5;exitDx=0;exitDy=0;entryX=0;entryY=0.5;entryDx=0;entryDy=0;fontFamily=Comic Sans MS;fontSize=14;" edge="1" parent="1" source="10" target="22">
                    <mxGeometry relative="1" as="geometry"/>
                </mxCell>
                <mxCell id="10" value="ID_rs2 (vld)" style="rounded=1;whiteSpace=wrap;html=1;labelBorderColor=none;fontSize=14;fontFamily=Comic Sans MS;" vertex="1" parent="1">
                    <mxGeometry x="540" y="230" width="100" height="20" as="geometry"/>
                </mxCell>
                <mxCell id="43" style="edgeStyle=orthogonalEdgeStyle;html=1;exitX=1;exitY=0.5;exitDx=0;exitDy=0;entryX=0;entryY=0.5;entryDx=0;entryDy=0;fontFamily=Comic Sans MS;fontSize=14;" edge="1" parent="1" source="11" target="23">
                    <mxGeometry relative="1" as="geometry"/>
                </mxCell>
                <mxCell id="11" value="ID_rd (vld)" style="rounded=1;whiteSpace=wrap;html=1;labelBorderColor=none;fontSize=14;fontFamily=Comic Sans MS;" vertex="1" parent="1">
                    <mxGeometry x="540" y="250" width="100" height="20" as="geometry"/>
                </mxCell>
                <mxCell id="44" style="edgeStyle=orthogonalEdgeStyle;html=1;exitX=1;exitY=0.5;exitDx=0;exitDy=0;entryX=0;entryY=0.5;entryDx=0;entryDy=0;fontFamily=Comic Sans MS;fontSize=14;" edge="1" parent="1" source="12" target="24">
                    <mxGeometry relative="1" as="geometry"/>
                </mxCell>
                <mxCell id="12" value="ID_imm" style="rounded=1;whiteSpace=wrap;html=1;labelBorderColor=none;fontSize=14;fontFamily=Comic Sans MS;" vertex="1" parent="1">
                    <mxGeometry x="560" y="270" width="80" height="20" as="geometry"/>
                </mxCell>
                <mxCell id="45" style="edgeStyle=orthogonalEdgeStyle;html=1;exitX=1;exitY=0.5;exitDx=0;exitDy=0;entryX=0;entryY=0.5;entryDx=0;entryDy=0;fontFamily=Comic Sans MS;fontSize=14;" edge="1" parent="1" source="13" target="25">
                    <mxGeometry relative="1" as="geometry"/>
                </mxCell>
                <mxCell id="13" value="ID_instID" style="rounded=1;whiteSpace=wrap;html=1;labelBorderColor=none;fontSize=14;fontFamily=Comic Sans MS;" vertex="1" parent="1">
                    <mxGeometry x="560" y="290" width="80" height="20" as="geometry"/>
                </mxCell>
                <mxCell id="14" value="ID_jmp_vld" style="rounded=1;whiteSpace=wrap;html=1;labelBorderColor=none;fontSize=14;fontFamily=Comic Sans MS;" vertex="1" parent="1">
                    <mxGeometry x="540" y="310" width="100" height="20" as="geometry"/>
                </mxCell>
                <mxCell id="16" value="pc" style="rounded=1;whiteSpace=wrap;html=1;labelBorderColor=none;fontSize=14;fontFamily=Comic Sans MS;" vertex="1" parent="1">
                    <mxGeometry x="440" y="200" width="40" height="20" as="geometry"/>
                </mxCell>
                <mxCell id="39" style="edgeStyle=orthogonalEdgeStyle;html=1;exitX=1;exitY=0.5;exitDx=0;exitDy=0;entryX=0;entryY=0.5;entryDx=0;entryDy=0;fontFamily=Comic Sans MS;fontSize=14;" edge="1" parent="1" source="17" target="27">
                    <mxGeometry relative="1" as="geometry"/>
                </mxCell>
                <mxCell id="17" value="ID_pc" style="rounded=1;whiteSpace=wrap;html=1;labelBorderColor=none;fontSize=14;fontFamily=Comic Sans MS;" vertex="1" parent="1">
                    <mxGeometry x="560" y="170" width="80" height="20" as="geometry"/>
                </mxCell>
                <mxCell id="20" value="opcode" style="rounded=1;whiteSpace=wrap;html=1;labelBorderColor=none;fontSize=14;fontFamily=Comic Sans MS;" vertex="1" parent="1">
                    <mxGeometry x="720" y="190" width="60" height="20" as="geometry"/>
                </mxCell>
                <mxCell id="21" value="rs1 (vld)" style="rounded=1;whiteSpace=wrap;html=1;labelBorderColor=none;fontSize=14;fontFamily=Comic Sans MS;" vertex="1" parent="1">
                    <mxGeometry x="720" y="210" width="80" height="20" as="geometry"/>
                </mxCell>
                <mxCell id="22" value="rs2 (vld)" style="rounded=1;whiteSpace=wrap;html=1;labelBorderColor=none;fontSize=14;fontFamily=Comic Sans MS;" vertex="1" parent="1">
                    <mxGeometry x="720" y="230" width="80" height="20" as="geometry"/>
                </mxCell>
                <mxCell id="23" value="rd (vld)" style="rounded=1;whiteSpace=wrap;html=1;labelBorderColor=none;fontSize=14;fontFamily=Comic Sans MS;" vertex="1" parent="1">
                    <mxGeometry x="720" y="250" width="80" height="20" as="geometry"/>
                </mxCell>
                <mxCell id="24" value="imm" style="rounded=1;whiteSpace=wrap;html=1;labelBorderColor=none;fontSize=14;fontFamily=Comic Sans MS;" vertex="1" parent="1">
                    <mxGeometry x="720" y="270" width="60" height="20" as="geometry"/>
                </mxCell>
                <mxCell id="25" value="instID" style="rounded=1;whiteSpace=wrap;html=1;labelBorderColor=none;fontSize=14;fontFamily=Comic Sans MS;" vertex="1" parent="1">
                    <mxGeometry x="720" y="290" width="60" height="20" as="geometry"/>
                </mxCell>
                <mxCell id="27" value="pc" style="rounded=1;whiteSpace=wrap;html=1;labelBorderColor=none;fontSize=14;fontFamily=Comic Sans MS;" vertex="1" parent="1">
                    <mxGeometry x="720" y="170" width="60" height="20" as="geometry"/>
                </mxCell>
                <mxCell id="28" value="ID_REG_opcode" style="rounded=1;whiteSpace=wrap;html=1;labelBorderColor=none;fontSize=14;fontFamily=Comic Sans MS;" vertex="1" parent="1">
                    <mxGeometry x="840" y="190" width="120" height="20" as="geometry"/>
                </mxCell>
                <mxCell id="29" value="ID_REG_rs1 (vld)" style="rounded=1;whiteSpace=wrap;html=1;labelBorderColor=none;fontSize=14;fontFamily=Comic Sans MS;" vertex="1" parent="1">
                    <mxGeometry x="840" y="210" width="120" height="20" as="geometry"/>
                </mxCell>
                <mxCell id="30" value="ID_REG_rs2 (vld)" style="rounded=1;whiteSpace=wrap;html=1;labelBorderColor=none;fontSize=14;fontFamily=Comic Sans MS;" vertex="1" parent="1">
                    <mxGeometry x="840" y="230" width="120" height="20" as="geometry"/>
                </mxCell>
                <mxCell id="31" value="ID_REG_rd (vld)" style="rounded=1;whiteSpace=wrap;html=1;labelBorderColor=none;fontSize=14;fontFamily=Comic Sans MS;" vertex="1" parent="1">
                    <mxGeometry x="840" y="250" width="120" height="20" as="geometry"/>
                </mxCell>
                <mxCell id="32" value="ID_REG_imm" style="rounded=1;whiteSpace=wrap;html=1;labelBorderColor=none;fontSize=14;fontFamily=Comic Sans MS;" vertex="1" parent="1">
                    <mxGeometry x="840" y="270" width="120" height="20" as="geometry"/>
                </mxCell>
                <mxCell id="33" value="ID_REG_instID" style="rounded=1;whiteSpace=wrap;html=1;labelBorderColor=none;fontSize=14;fontFamily=Comic Sans MS;" vertex="1" parent="1">
                    <mxGeometry x="840" y="290" width="120" height="20" as="geometry"/>
                </mxCell>
                <mxCell id="35" value="ID_REG_pc" style="rounded=1;whiteSpace=wrap;html=1;labelBorderColor=none;fontSize=14;fontFamily=Comic Sans MS;" vertex="1" parent="1">
                    <mxGeometry x="840" y="170" width="120" height="20" as="geometry"/>
                </mxCell>
            </root>
        </mxGraphModel>
    </diagram>
</mxfile>